<svg xmlns="http://www.w3.org/2000/svg" xmlns:xlink="http://www.w3.org/1999/xlink" width="287" height="188" viewBox="0 0 287 188">
  <defs fill="#24396f">
    <clipPath id="clip-path" fill="#24396f">
      <rect id="Rectangle_17578" data-name="Rectangle 17578" width="287" height="188" fill="#c8ccd6" stroke="#ddcece" stroke-width="1"/>
    </clipPath>
  </defs>
  <g id="Design-Elements-004" clip-path="url(#clip-path)">
    <g id="Group_1077" data-name="Group 1077" transform="translate(-27.493 166.36) rotate(-90)">
      <g id="Polygon_10" data-name="Polygon 10" transform="translate(0 53.868) rotate(-90)" fill="none">
        <path d="M40.4,0,53.868,23.669,40.4,47.338H13.467L0,23.669,13.467,0Z" stroke="none" fill="#24396f"/>
        <path d="M 14.6300163269043 1.999996185302734 L 2.301067352294922 23.66906547546387 L 14.6300163269043 45.33812713623047 L 39.23751068115234 45.33812713623047 L 51.56645965576172 23.66906547546387 L 39.23751068115234 1.999996185302734 L 14.6300163269043 1.999996185302734 M 13.46688461303711 -3.814697265625e-06 L 40.40064239501953 -3.814697265625e-06 L 53.86752319335938 23.66906547546387 L 40.40064239501953 47.33812713623047 L 13.46688461303711 47.33812713623047 L 3.814697265625e-06 23.66906547546387 L 13.46688461303711 -3.814697265625e-06 Z" stroke="none" fill="rgba(255,255,255,0.2)"/>
      </g>
      <g id="Polygon_12" data-name="Polygon 12" transform="translate(58.158 53.868) rotate(-90)" fill="none">
        <path d="M40.4,0,53.868,23.669,40.4,47.338H13.467L0,23.669,13.467,0Z" stroke="none" fill="#24396f"/>
        <path d="M 14.6300163269043 1.999996185302734 L 2.301067352294922 23.66906547546387 L 14.6300163269043 45.33812713623047 L 39.23751068115234 45.33812713623047 L 51.56645965576172 23.66906547546387 L 39.23751068115234 1.999996185302734 L 14.6300163269043 1.999996185302734 M 13.46688461303711 -3.814697265625e-06 L 40.40064239501953 -3.814697265625e-06 L 53.86752319335938 23.66906547546387 L 40.40064239501953 47.33812713623047 L 13.46688461303711 47.33812713623047 L 3.814697265625e-06 23.66906547546387 L 13.46688461303711 -3.814697265625e-06 Z" stroke="none" fill="rgba(255,255,255,0.2)"/>
      </g>
      <g id="Polygon_17" data-name="Polygon 17" transform="translate(228.576 53.868) rotate(-90)" fill="none">
        <path d="M40.4,0,53.868,23.669,40.4,47.338H13.467L0,23.669,13.467,0Z" stroke="none" fill="#24396f"/>
        <path d="M 14.6300163269043 1.999996185302734 L 2.301067352294922 23.66906547546387 L 14.6300163269043 45.33812713623047 L 39.23751068115234 45.33812713623047 L 51.56645965576172 23.66906547546387 L 39.23751068115234 1.999996185302734 L 14.6300163269043 1.999996185302734 M 13.46688461303711 -3.814697265625e-06 L 40.40064239501953 -3.814697265625e-06 L 53.86752319335938 23.66906547546387 L 40.40064239501953 47.33812713623047 L 13.46688461303711 47.33812713623047 L 3.814697265625e-06 23.66906547546387 L 13.46688461303711 -3.814697265625e-06 Z" stroke="none" fill="rgba(255,255,255,0.2)"/>
      </g>
      <g id="Polygon_21" data-name="Polygon 21" transform="translate(171.77 53.868) rotate(-90)" fill="none">
        <path d="M40.4,0,53.868,23.669,40.4,47.338H13.467L0,23.669,13.467,0Z" stroke="none" fill="#24396f"/>
        <path d="M 14.6300163269043 1.999996185302734 L 2.301067352294922 23.66906547546387 L 14.6300163269043 45.33812713623047 L 39.23751068115234 45.33812713623047 L 51.56645965576172 23.66906547546387 L 39.23751068115234 1.999996185302734 L 14.6300163269043 1.999996185302734 M 13.46688461303711 -3.814697265625e-06 L 40.40064239501953 -3.814697265625e-06 L 53.86752319335938 23.66906547546387 L 40.40064239501953 47.33812713623047 L 13.46688461303711 47.33812713623047 L 3.814697265625e-06 23.66906547546387 L 13.46688461303711 -3.814697265625e-06 Z" stroke="none" fill="rgba(255,255,255,0.2)"/>
      </g>
      <g id="Polygon_14" data-name="Polygon 14" transform="translate(114.964 53.868) rotate(-90)" fill="none">
        <path d="M39.246,0,52.328,22.993,39.246,45.986H13.082L0,22.993,13.082,0Z" stroke="none" fill="#24396f"/>
        <path d="M 14.2452507019043 1.999996185302734 L 2.301063537597656 22.99280548095703 L 14.2452392578125 43.9856071472168 L 38.08320236206055 43.9856071472168 L 50.02738952636719 22.99280548095703 L 38.08320236206055 1.999996185302734 L 14.2452507019043 1.999996185302734 M 13.08211517333984 -3.814697265625e-06 L 39.246337890625 -3.814697265625e-06 L 52.32845687866211 22.99280548095703 L 39.246337890625 45.9856071472168 L 13.08210754394531 45.9856071472168 L -3.814697265625e-06 22.99280548095703 L 13.08211517333984 -3.814697265625e-06 Z" stroke="none" fill="rgba(255,255,255,0.2)"/>
      </g>
      <g id="Polygon_16" data-name="Polygon 16" transform="translate(286.734 53.868) rotate(-90)" fill="none">
        <path d="M39.246,0,52.328,22.993,39.246,45.986H13.082L0,22.993,13.082,0Z" stroke="none" fill="#24396f"/>
        <path d="M 14.2452507019043 1.999996185302734 L 2.301063537597656 22.99280548095703 L 14.2452392578125 43.9856071472168 L 38.08320236206055 43.9856071472168 L 50.02738952636719 22.99280548095703 L 38.08320236206055 1.999996185302734 L 14.2452507019043 1.999996185302734 M 13.08211517333984 -3.814697265625e-06 L 39.246337890625 -3.814697265625e-06 L 52.32845687866211 22.99280548095703 L 39.246337890625 45.9856071472168 L 13.08210754394531 45.9856071472168 L -3.814697265625e-06 22.99280548095703 L 13.08211517333984 -3.814697265625e-06 Z" stroke="none" fill="rgba(255,255,255,0.2)"/>
      </g>
      <g id="Polygon_11" data-name="Polygon 11" transform="translate(29.387 101.206) rotate(-90)" fill="none">
        <path d="M39.561,0,52.748,23.177,39.561,46.354H13.187L0,23.177,13.187,0Z" stroke="none" fill="#24396f"/>
        <path d="M 14.35018539428711 2 L 2.301067352294922 23.1772403717041 L 14.35018539428711 44.3544807434082 L 38.39801788330078 44.3544807434082 L 50.44713592529297 23.1772403717041 L 38.39801788330078 2 L 14.35018539428711 2 M 13.18704986572266 0 L 39.56114959716797 0 L 52.74820327758789 23.1772403717041 L 39.56114959716797 46.3544807434082 L 13.18704986572266 46.3544807434082 L 0 23.1772403717041 L 13.18704986572266 0 Z" stroke="none" fill="rgba(255,255,255,0.2)"/>
      </g>
      <g id="Polygon_18" data-name="Polygon 18" transform="translate(202.509 101.206) rotate(-90)" fill="none">
        <path d="M39.561,0,52.748,23.177,39.561,46.354H13.187L0,23.177,13.187,0Z" stroke="none" fill="#24396f"/>
        <path d="M 14.35018539428711 2 L 2.301067352294922 23.1772403717041 L 14.35018539428711 44.3544807434082 L 38.39801788330078 44.3544807434082 L 50.44713592529297 23.1772403717041 L 38.39801788330078 2 L 14.35018539428711 2 M 13.18704986572266 0 L 39.56114959716797 0 L 52.74820327758789 23.1772403717041 L 39.56114959716797 46.3544807434082 L 13.18704986572266 46.3544807434082 L 0 23.1772403717041 L 13.18704986572266 0 Z" stroke="none" fill="rgba(255,255,255,0.2)"/>
      </g>
      <g id="Polygon_23" data-name="Polygon 23" transform="translate(144.351 101.206) rotate(-90)" fill="none">
        <path d="M39.561,0,52.748,23.177,39.561,46.354H13.187L0,23.177,13.187,0Z" stroke="none" fill="#24396f"/>
        <path d="M 14.35018539428711 2 L 2.301067352294922 23.1772403717041 L 14.35018539428711 44.3544807434082 L 38.39801788330078 44.3544807434082 L 50.44713592529297 23.1772403717041 L 38.39801788330078 2 L 14.35018539428711 2 M 13.18704986572266 0 L 39.56114959716797 0 L 52.74820327758789 23.1772403717041 L 39.56114959716797 46.3544807434082 L 13.18704986572266 46.3544807434082 L 0 23.1772403717041 L 13.18704986572266 0 Z" stroke="none" fill="rgba(255,255,255,0.2)"/>
      </g>
      <g id="Polygon_13" data-name="Polygon 13" transform="translate(87.545 101.206) rotate(-90)" fill="none">
        <path d="M39.561,0,52.748,23.177,39.561,46.354H13.187L0,23.177,13.187,0Z" stroke="none" fill="#24396f"/>
        <path d="M 14.35018539428711 2 L 2.301067352294922 23.1772403717041 L 14.35018539428711 44.3544807434082 L 38.39801788330078 44.3544807434082 L 50.44713592529297 23.1772403717041 L 38.39801788330078 2 L 14.35018539428711 2 M 13.18704986572266 0 L 39.56114959716797 0 L 52.74820327758789 23.1772403717041 L 39.56114959716797 46.3544807434082 L 13.18704986572266 46.3544807434082 L 0 23.1772403717041 L 13.18704986572266 0 Z" stroke="none" fill="rgba(255,255,255,0.2)"/>
      </g>
      <g id="Polygon_19" data-name="Polygon 19" transform="translate(259.315 101.206) rotate(-90)" fill="none">
        <path d="M39.561,0,52.748,23.177,39.561,46.354H13.187L0,23.177,13.187,0Z" stroke="none" fill="#24396f"/>
        <path d="M 14.35018539428711 2 L 2.301067352294922 23.1772403717041 L 14.35018539428711 44.3544807434082 L 38.39801788330078 44.3544807434082 L 50.44713592529297 23.1772403717041 L 38.39801788330078 2 L 14.35018539428711 2 M 13.18704986572266 0 L 39.56114959716797 0 L 52.74820327758789 23.1772403717041 L 39.56114959716797 46.3544807434082 L 13.18704986572266 46.3544807434082 L 0 23.1772403717041 L 13.18704986572266 0 Z" stroke="none" fill="rgba(255,255,255,0.2)"/>
      </g>
      <g id="Polygon_25" data-name="Polygon 25" transform="translate(86.561 201.292) rotate(-90)" fill="none">
        <path d="M40.4,0,53.868,23.669,40.4,47.338H13.467L0,23.669,13.467,0Z" stroke="none" fill="#24396f"/>
        <path d="M 14.6300163269043 1.999996185302734 L 2.301067352294922 23.66906547546387 L 14.6300163269043 45.33812713623047 L 39.23751068115234 45.33812713623047 L 51.56645965576172 23.66906547546387 L 39.23751068115234 1.999996185302734 L 14.6300163269043 1.999996185302734 M 13.46688461303711 -3.814697265625e-06 L 40.40064239501953 -3.814697265625e-06 L 53.86752319335938 23.66906547546387 L 40.40064239501953 47.33812713623047 L 13.46688461303711 47.33812713623047 L 3.814697265625e-06 23.66906547546387 L 13.46688461303711 -3.814697265625e-06 Z" stroke="none" fill="rgba(255,255,255,0.2)"/>
      </g>
      <g id="Polygon_15" data-name="Polygon 15" transform="translate(56.806 149.896) rotate(-90)" fill="none">
        <path d="M40.4,0,53.868,23.669,40.4,47.338H13.467L0,23.669,13.467,0Z" stroke="none" fill="#24396f"/>
        <path d="M 14.6300163269043 1.999996185302734 L 2.301067352294922 23.66906547546387 L 14.6300163269043 45.33812713623047 L 39.23751068115234 45.33812713623047 L 51.56645965576172 23.66906547546387 L 39.23751068115234 1.999996185302734 L 14.6300163269043 1.999996185302734 M 13.46688461303711 -3.814697265625e-06 L 40.40064239501953 -3.814697265625e-06 L 53.86752319335938 23.66906547546387 L 40.40064239501953 47.33812713623047 L 13.46688461303711 47.33812713623047 L 3.814697265625e-06 23.66906547546387 L 13.46688461303711 -3.814697265625e-06 Z" stroke="none" fill="rgba(255,255,255,0.2)"/>
      </g>
      <g id="Polygon_26" data-name="Polygon 26" transform="translate(143.367 201.292) rotate(-90)" fill="none">
        <path d="M40.4,0,53.868,23.669,40.4,47.338H13.467L0,23.669,13.467,0Z" stroke="none" fill="#24396f"/>
        <path d="M 14.6300163269043 1.999996185302734 L 2.301067352294922 23.66906547546387 L 14.6300163269043 45.33812713623047 L 39.23751068115234 45.33812713623047 L 51.56645965576172 23.66906547546387 L 39.23751068115234 1.999996185302734 L 14.6300163269043 1.999996185302734 M 13.46688461303711 -3.814697265625e-06 L 40.40064239501953 -3.814697265625e-06 L 53.86752319335938 23.66906547546387 L 40.40064239501953 47.33812713623047 L 13.46688461303711 47.33812713623047 L 3.814697265625e-06 23.66906547546387 L 13.46688461303711 -3.814697265625e-06 Z" stroke="none" fill="rgba(255,255,255,0.2)"/>
      </g>
      <g id="Polygon_30" data-name="Polygon 30" transform="translate(143.367 301.378) rotate(-90)" fill="none">
        <path d="M40.4,0,53.868,23.669,40.4,47.338H13.467L0,23.669,13.467,0Z" stroke="none" fill="#24396f"/>
        <path d="M 14.6300163269043 1.999996185302734 L 2.301067352294922 23.66906547546387 L 14.6300163269043 45.33812713623047 L 39.23751068115234 45.33812713623047 L 51.56645965576172 23.66906547546387 L 39.23751068115234 1.999996185302734 L 14.6300163269043 1.999996185302734 M 13.46688461303711 -3.814697265625e-06 L 40.40064239501953 -3.814697265625e-06 L 53.86752319335938 23.66906547546387 L 40.40064239501953 47.33812713623047 L 13.46688461303711 47.33812713623047 L 3.814697265625e-06 23.66906547546387 L 13.46688461303711 -3.814697265625e-06 Z" stroke="none" fill="rgba(255,255,255,0.2)"/>
      </g>
      <g id="Polygon_27" data-name="Polygon 27" transform="translate(201.525 201.292) rotate(-90)" fill="none">
        <path d="M40.4,0,53.868,23.669,40.4,47.338H13.467L0,23.669,13.467,0Z" stroke="none" fill="#24396f"/>
        <path d="M 14.6300163269043 1.999996185302734 L 2.301067352294922 23.66906547546387 L 14.6300163269043 45.33812713623047 L 39.23751068115234 45.33812713623047 L 51.56645965576172 23.66906547546387 L 39.23751068115234 1.999996185302734 L 14.6300163269043 1.999996185302734 M 13.46688461303711 -3.814697265625e-06 L 40.40064239501953 -3.814697265625e-06 L 53.86752319335938 23.66906547546387 L 40.40064239501953 47.33812713623047 L 13.46688461303711 47.33812713623047 L 3.814697265625e-06 23.66906547546387 L 13.46688461303711 -3.814697265625e-06 Z" stroke="none" fill="rgba(255,255,255,0.2)"/>
      </g>
      <g id="Polygon_22" data-name="Polygon 22" transform="translate(114.964 149.896) rotate(-90)" fill="none">
        <path d="M40.4,0,53.868,23.669,40.4,47.338H13.467L0,23.669,13.467,0Z" stroke="none" fill="#24396f"/>
        <path d="M 14.6300163269043 1.999996185302734 L 2.301067352294922 23.66906547546387 L 14.6300163269043 45.33812713623047 L 39.23751068115234 45.33812713623047 L 51.56645965576172 23.66906547546387 L 39.23751068115234 1.999996185302734 L 14.6300163269043 1.999996185302734 M 13.46688461303711 -3.814697265625e-06 L 40.40064239501953 -3.814697265625e-06 L 53.86752319335938 23.66906547546387 L 40.40064239501953 47.33812713623047 L 13.46688461303711 47.33812713623047 L 3.814697265625e-06 23.66906547546387 L 13.46688461303711 -3.814697265625e-06 Z" stroke="none" fill="rgba(255,255,255,0.2)"/>
      </g>
      <g id="Polygon_29" data-name="Polygon 29" transform="translate(114.964 251.335) rotate(-90)" fill="none">
        <path d="M40.4,0,53.868,23.669,40.4,47.338H13.467L0,23.669,13.467,0Z" stroke="none" fill="#24396f"/>
        <path d="M 14.6300163269043 1.999996185302734 L 2.301067352294922 23.66906547546387 L 14.6300163269043 45.33812713623047 L 39.23751068115234 45.33812713623047 L 51.56645965576172 23.66906547546387 L 39.23751068115234 1.999996185302734 L 14.6300163269043 1.999996185302734 M 13.46688461303711 -3.814697265625e-06 L 40.40064239501953 -3.814697265625e-06 L 53.86752319335938 23.66906547546387 L 40.40064239501953 47.33812713623047 L 13.46688461303711 47.33812713623047 L 3.814697265625e-06 23.66906547546387 L 13.46688461303711 -3.814697265625e-06 Z" stroke="none" fill="rgba(255,255,255,0.2)"/>
      </g>
      <g id="Polygon_24" data-name="Polygon 24" transform="translate(171.77 149.896) rotate(-90)" fill="none">
        <path d="M40.4,0,53.868,23.669,40.4,47.338H13.467L0,23.669,13.467,0Z" stroke="none" fill="#24396f"/>
        <path d="M 14.6300163269043 1.999996185302734 L 2.301067352294922 23.66906547546387 L 14.6300163269043 45.33812713623047 L 39.23751068115234 45.33812713623047 L 51.56645965576172 23.66906547546387 L 39.23751068115234 1.999996185302734 L 14.6300163269043 1.999996185302734 M 13.46688461303711 -3.814697265625e-06 L 40.40064239501953 -3.814697265625e-06 L 53.86752319335938 23.66906547546387 L 40.40064239501953 47.33812713623047 L 13.46688461303711 47.33812713623047 L 3.814697265625e-06 23.66906547546387 L 13.46688461303711 -3.814697265625e-06 Z" stroke="none" fill="rgba(255,255,255,0.2)"/>
      </g>
      <g id="Polygon_28" data-name="Polygon 28" transform="translate(171.77 251.335) rotate(-90)" fill="none">
        <path d="M40.4,0,53.868,23.669,40.4,47.338H13.467L0,23.669,13.467,0Z" stroke="none" fill="#24396f"/>
        <path d="M 14.6300163269043 1.999996185302734 L 2.301067352294922 23.66906547546387 L 14.6300163269043 45.33812713623047 L 39.23751068115234 45.33812713623047 L 51.56645965576172 23.66906547546387 L 39.23751068115234 1.999996185302734 L 14.6300163269043 1.999996185302734 M 13.46688461303711 -3.814697265625e-06 L 40.40064239501953 -3.814697265625e-06 L 53.86752319335938 23.66906547546387 L 40.40064239501953 47.33812713623047 L 13.46688461303711 47.33812713623047 L 3.814697265625e-06 23.66906547546387 L 13.46688461303711 -3.814697265625e-06 Z" stroke="none" fill="rgba(255,255,255,0.2)"/>
      </g>
      <g id="Polygon_20" data-name="Polygon 20" transform="translate(229.928 149.896) rotate(-90)" fill="none">
        <path d="M40.4,0,53.868,23.669,40.4,47.338H13.467L0,23.669,13.467,0Z" stroke="none" fill="#24396f"/>
        <path d="M 14.6300163269043 1.999996185302734 L 2.301067352294922 23.66906547546387 L 14.6300163269043 45.33812713623047 L 39.23751068115234 45.33812713623047 L 51.56645965576172 23.66906547546387 L 39.23751068115234 1.999996185302734 L 14.6300163269043 1.999996185302734 M 13.46688461303711 -3.814697265625e-06 L 40.40064239501953 -3.814697265625e-06 L 53.86752319335938 23.66906547546387 L 40.40064239501953 47.33812713623047 L 13.46688461303711 47.33812713623047 L 3.814697265625e-06 23.66906547546387 L 13.46688461303711 -3.814697265625e-06 Z" stroke="none" fill="rgba(255,255,255,0.2)"/>
      </g>
    </g>
  </g>
</svg>