<svg xmlns="http://www.w3.org/2000/svg" xmlns:xlink="http://www.w3.org/1999/xlink" width="30" height="30" viewBox="0 0 30 30">
  <defs>
    <clipPath id="clip-path">
      <rect id="Rectangle_17952" data-name="Rectangle 17952" width="30" height="30" transform="translate(174 1830)" fill="#313131"/>
    </clipPath>
  </defs>
  <g id="Mask_Group_61" data-name="Mask Group 61" transform="translate(-174 -1830)" clip-path="url(#clip-path)">
    <g id="__TEMP__SVG__" transform="translate(174 1831.875)">
      <path id="Path_15533" data-name="Path 15533" d="M26.256,4.437H3.756A1.875,1.875,0,0,0,1.881,6.312v18.75a1.875,1.875,0,0,0,1.875,1.875h22.5a1.875,1.875,0,0,0,1.875-1.875V6.312A1.875,1.875,0,0,0,26.256,4.437ZM3.756,2.563a3.75,3.75,0,0,0-3.75,3.75v18.75a3.75,3.75,0,0,0,3.75,3.75h22.5a3.75,3.75,0,0,0,3.75-3.75V6.312a3.75,3.75,0,0,0-3.75-3.75H3.756Z" transform="translate(-0.006 -2.563)" fill="#313131" fill-rule="evenodd"/>
      <path id="Path_15534" data-name="Path 15534" d="M20.654,19.492a.937.937,0,0,1,1.082-.174l7.083,3.651v8.438H2.568v-3.75L7.53,23.243a.937.937,0,0,1,1.181-.117L13.7,26.45l6.957-6.957Z" transform="translate(-0.693 -7.031)" fill="#313131"/>
      <path id="Path_15535" data-name="Path 15535" d="M10.506,15.875a2.813,2.813,0,1,0-2.813-2.813A2.813,2.813,0,0,0,10.506,15.875Z" transform="translate(-2.068 -4.625)" fill="#313131" fill-rule="evenodd"/>
    </g>
  </g>
</svg>
