<svg xmlns="http://www.w3.org/2000/svg" xmlns:xlink="http://www.w3.org/1999/xlink" width="24" height="24" viewBox="0 0 24 24">
  <defs>
    <clipPath id="clip-path">
      <rect id="Rectangle_17637" data-name="Rectangle 17637" width="24" height="24" transform="translate(-17397 -11328)" fill="#707070"/>
    </clipPath>
  </defs>
  <g id="Mask_Group_36" data-name="Mask Group 36" transform="translate(17397 11328)" clip-path="url(#clip-path)">
    <g id="__TEMP__SVG__" transform="translate(-17397 -11328)">
      <path id="Path_15391" data-name="Path 15391" d="M22.5,21A1.469,1.469,0,0,0,24,19.5c0-1.5-1.5-6-7.5-6S9,18,9,19.5A1.469,1.469,0,0,0,10.5,21ZM10.507,19.584v0Zm.026-.084H22.467l.021,0,.012,0a4.619,4.619,0,0,0-1.14-2.58A6.006,6.006,0,0,0,16.5,15a6.011,6.011,0,0,0-4.86,1.914,4.606,4.606,0,0,0-1.14,2.58l.033.006Zm11.959.084v0ZM16.5,10.5a3,3,0,1,0-3-3A3,3,0,0,0,16.5,10.5Zm4.5-3A4.5,4.5,0,1,1,16.5,3,4.5,4.5,0,0,1,21,7.5ZM10.4,13.92a8.82,8.82,0,0,0-1.845-.371Q8.031,13.5,7.5,13.5c-6,0-7.5,4.5-7.5,6A1.325,1.325,0,0,0,1.5,21H7.824A3.357,3.357,0,0,1,7.5,19.5a6.881,6.881,0,0,1,1.635-4.356A7.963,7.963,0,0,1,10.4,13.92ZM7.38,15a5.965,5.965,0,0,0-4.74,1.914A4.59,4.59,0,0,0,1.5,19.5H6A8.255,8.255,0,0,1,7.38,15ZM2.25,8.25a4.5,4.5,0,1,1,4.5,4.5A4.5,4.5,0,0,1,2.25,8.25Zm4.5-3a3,3,0,1,0,3,3A3,3,0,0,0,6.75,5.25Z" fill-rule="evenodd"/>
    </g>
  </g>
</svg>
