<svg xmlns="http://www.w3.org/2000/svg" width="16.057" height="20.609" viewBox="0 0 16.057 20.609">
  <g id="pdf" transform="translate(0.5 0.5)">
    <path id="Path_797" data-name="Path 797" d="M17.174,0H7.012C6.729,0,6.5.229,6.5.674V19.258a.527.527,0,0,0,.512.35H21.044a.527.527,0,0,0,.512-.35V4.544c0-.244-.033-.322-.09-.38L17.392.09A.309.309,0,0,0,17.174,0Z" transform="translate(-6.5 0)" fill="none" stroke="#cc4b4c" stroke-width="1"/>
    <path id="Path_799" data-name="Path 799" d="M18.152,16.158h0a.562.562,0,0,1-.339-.114.839.839,0,0,1-.39-.785c.064-.57.769-1.167,2.1-1.775A23.5,23.5,0,0,0,20.845,9.72,3.458,3.458,0,0,1,20.4,7.394a.672.672,0,0,1,.4-.425,1.719,1.719,0,0,1,.356-.06c.176,0,.332.227.442.367s.338.411-.131,2.382A11.189,11.189,0,0,0,23.249,12.3a6.812,6.812,0,0,1,1.176-.125c.548,0,.881.128,1.016.391a.709.709,0,0,1-.137.756.931.931,0,0,1-.777.417,2.328,2.328,0,0,1-1.475-.8,16.778,16.778,0,0,0-3.091.988,9.935,9.935,0,0,1-.834,1.489C18.768,15.923,18.458,16.158,18.152,16.158Zm.932-1.795c-.748.421-1.053.766-1.075.961,0,.032-.013.117.151.242C18.212,15.549,18.517,15.41,19.084,14.363Zm4.775-1.555c.285.22.355.331.542.331a.528.528,0,0,0,.424-.154.554.554,0,0,0,.081-.145c-.043-.023-.1-.069-.411-.069A5.119,5.119,0,0,0,23.859,12.807Zm-2.616-2.3a24.963,24.963,0,0,1-.936,2.649,17.5,17.5,0,0,1,2.275-.707A11.986,11.986,0,0,1,21.244,10.5ZM21.031,7.54a.84.84,0,0,0,.034,1.126C21.4,7.925,21.046,7.535,21.031,7.54Z" transform="translate(-13.595 -4.489)" fill="#cc4b4c"/>
    <path id="Path_800" data-name="Path 800" d="M21.044,44.953H7.012A.512.512,0,0,1,6.5,44.44V39H21.557v5.44A.512.512,0,0,1,21.044,44.953Z" transform="translate(-6.5 -25.344)" fill="#cc4b4c"/>
    <g id="Group_877" data-name="Group 877" transform="translate(3.237 15.03)">
      <path id="Path_801" data-name="Path 801" d="M16.319,46.452h-.575V42.924h1.015A1.424,1.424,0,0,1,17.2,43a1.21,1.21,0,0,1,.395.215,1.125,1.125,0,0,1,.283.347.961.961,0,0,1,.108.457,1.251,1.251,0,0,1-.091.486,1.016,1.016,0,0,1-.254.366,1.144,1.144,0,0,1-.393.23,1.51,1.51,0,0,1-.507.081h-.426v1.274Zm0-3.093v1.4h.527a.626.626,0,0,0,.208-.036.525.525,0,0,0,.189-.117.573.573,0,0,0,.139-.227,1.077,1.077,0,0,0,.053-.361.977.977,0,0,0-.024-.2.573.573,0,0,0-.1-.215.58.58,0,0,0-.208-.172.774.774,0,0,0-.354-.069h-.431Z" transform="translate(-15.744 -42.924)" fill="#fff"/>
      <path id="Path_802" data-name="Path 802" d="M26.933,44.59a2.592,2.592,0,0,1-.093.744,1.851,1.851,0,0,1-.237.517,1.218,1.218,0,0,1-.323.328,1.621,1.621,0,0,1-.347.18,1.434,1.434,0,0,1-.306.077,2.04,2.04,0,0,1-.206.016H24.084V42.924h1.063a2.019,2.019,0,0,1,.783.141,1.625,1.625,0,0,1,.56.376,1.542,1.542,0,0,1,.333.534A1.767,1.767,0,0,1,26.933,44.59Zm-1.7,1.441a.951.951,0,0,0,.842-.373,1.9,1.9,0,0,0,.258-1.082,1.833,1.833,0,0,0-.053-.436.932.932,0,0,0-.2-.39,1.074,1.074,0,0,0-.409-.283,1.763,1.763,0,0,0-.67-.108h-.335v2.671h.57Z" transform="translate(-21.164 -42.924)" fill="#fff"/>
      <path id="Path_803" data-name="Path 803" d="M35.182,43.36V44.47h1.474v.393H35.182v1.589H34.6V42.924H36.8v.436Z" transform="translate(-27.996 -42.924)" fill="#fff"/>
    </g>
  </g>
</svg>
