<svg xmlns="http://www.w3.org/2000/svg" xmlns:xlink="http://www.w3.org/1999/xlink" width="18" height="18" viewBox="0 0 18 18">
  <defs>
    <clipPath id="clip-path">
      <rect id="Rectangle_17449" data-name="Rectangle 17449" width="18" height="18" transform="translate(1204.504 20)" fill="#706f6f"/>
    </clipPath>
  </defs>
  <g id="Icon-Filter" transform="translate(-1204.504 -20)" clip-path="url(#clip-path)">
    <g id="Layer_2" data-name="Layer 2" transform="translate(1204.504 20)">
      <g id="invisible_box" data-name="invisible box">
        <rect id="Rectangle_17863" data-name="Rectangle 17863" width="18" height="18" fill="none"/>
      </g>
      <g id="Icons">
        <path id="Path_13677" data-name="Path 13677" d="M10.125,16.5H9.862l-2.625-.562a1.162,1.162,0,0,1-.862-1.125V10.125l-4.5-4.2A.975.975,0,0,1,1.5,5.1V2.625A1.125,1.125,0,0,1,2.625,1.5h12.75A1.125,1.125,0,0,1,16.5,2.625v2.85a1.05,1.05,0,0,1-.412.862L11.25,10.163v5.212A1.141,1.141,0,0,1,10.125,16.5Zm-2.25-2.025,1.875.45V9.45L15,5.288V3H3V4.95L7.875,9.487Z" fill="#706f6f"/>
      </g>
    </g>
  </g>
</svg>
