<svg xmlns="http://www.w3.org/2000/svg" width="18.393" height="20.02" viewBox="0 0 18.393 20.02">
  <g id="Group_687" data-name="Group 687" transform="translate(-0.25 -0.375)">
    <path id="Path_473" data-name="Path 473" d="M1,5H17.893" transform="translate(0 -0.246)" fill="none" stroke="#2951b7" stroke-linecap="round" stroke-linejoin="round" stroke-width="1.5"/>
    <path id="Path_474" data-name="Path 474" d="M5.815,4.754V2.877A1.877,1.877,0,0,1,7.692,1h3.754a1.877,1.877,0,0,1,1.877,1.877V4.754m2.815,0V17.893a1.877,1.877,0,0,1-1.877,1.877H4.877A1.877,1.877,0,0,1,3,17.893V4.754Z" transform="translate(-0.123)" fill="none" stroke="#2951b7" stroke-linecap="round" stroke-linejoin="round" stroke-width="1.25"/>
    <g id="Group_628" data-name="Group 628" transform="translate(5.249 8.907)">
      <g id="Group_626" data-name="Group 626" transform="translate(0 4.277)">
        <path id="Path_529" data-name="Path 529" d="M1,14.043V12H3.045" transform="translate(-1 -11.998)" fill="none" stroke="#2951b7" stroke-linecap="round" stroke-linejoin="round" stroke-width="1.25"/>
        <path id="Path_530" data-name="Path 530" d="M1,9.794l1.582,1.486a3.068,3.068,0,0,0,5.062-1.145" transform="translate(-0.557 -9.352)" fill="none" stroke="#2951b7" stroke-linecap="round" stroke-linejoin="round" stroke-width="1.25"/>
      </g>
      <g id="Group_627" data-name="Group 627" transform="translate(0.869)">
        <path id="Path_529-2" data-name="Path 529" d="M3.045,12v2.045H1" transform="translate(4.041 -11.215)" fill="none" stroke="#2951b7" stroke-linecap="round" stroke-linejoin="round" stroke-width="1.25"/>
        <path id="Path_530-2" data-name="Path 530" d="M7.643,12.18,6.062,10.694A3.068,3.068,0,0,0,1,11.839" transform="translate(-1 -9.794)" fill="none" stroke="#2951b7" stroke-linecap="round" stroke-linejoin="round" stroke-width="1.25"/>
      </g>
    </g>
  </g>
</svg>
