<svg xmlns="http://www.w3.org/2000/svg" width="17.729" height="14.405" viewBox="0 0 17.729 14.405">
  <g id="image" transform="translate(0 -2.25)">
    <path id="Path_15530" data-name="Path 15530" d="M.554,18a.554.554,0,0,1,.554.554v3.878A1.108,1.108,0,0,0,2.216,23.54h13.3a1.108,1.108,0,0,0,1.108-1.108V18.554a.554.554,0,1,1,1.108,0v3.878a2.216,2.216,0,0,1-2.216,2.216H2.216A2.216,2.216,0,0,1,0,22.432V18.554A.554.554,0,0,1,.554,18Z" transform="translate(0 -7.994)" fill="#313131" fill-rule="evenodd"/>
    <path id="Path_15531" data-name="Path 15531" d="M11.083,16.708a.554.554,0,0,1,.784,0l2.541,2.541,2.541-2.541a.554.554,0,0,1,.784.784L14.8,20.424a.554.554,0,0,1-.785,0l-2.932-2.933A.554.554,0,0,1,11.083,16.708Z" transform="translate(-5.542 -7.255)" fill="#313131" fill-rule="evenodd"/>
    <path id="Path_15532" data-name="Path 15532" d="M17.429,2.25a.554.554,0,0,1,.554.554v8.864a.554.554,0,1,1-1.108,0V2.8A.554.554,0,0,1,17.429,2.25Z" transform="translate(-8.565)" fill="#313131" fill-rule="evenodd"/>
  </g>
</svg>
