<svg xmlns="http://www.w3.org/2000/svg" xmlns:xlink="http://www.w3.org/1999/xlink" width="24" height="24" viewBox="0 0 24 24">
  <defs>
    <clipPath id="clip-path">
      <rect id="Rectangle_17646" data-name="Rectangle 17646" width="24" height="24" transform="translate(902 2307)" fill="#707070"/>
    </clipPath>
  </defs>
  <g id="Mask_Group_31" data-name="Mask Group 31" transform="translate(-902 -2307)" clip-path="url(#clip-path)">
    <g id="__TEMP__SVG__" transform="translate(900.286 2305.286)">
      <path id="Path_15378" data-name="Path 15378" d="M6.857,25.714H3.429A1.714,1.714,0,0,1,1.714,24V20.571a1.714,1.714,0,0,1,1.714-1.714H6.857a1.714,1.714,0,0,1,1.714,1.714V24A1.714,1.714,0,0,1,6.857,25.714ZM3.429,20.571V24H6.857V20.571Z"/>
      <path id="Path_15379" data-name="Path 15379" d="M15.429,25.714H12A1.714,1.714,0,0,1,10.286,24V20.571A1.714,1.714,0,0,1,12,18.857h3.429a1.714,1.714,0,0,1,1.714,1.714V24A1.714,1.714,0,0,1,15.429,25.714ZM12,20.571V24h3.429V20.571Z"/>
      <path id="Path_15380" data-name="Path 15380" d="M24,25.714H20.571A1.714,1.714,0,0,1,18.857,24V20.571a1.714,1.714,0,0,1,1.714-1.714H24a1.714,1.714,0,0,1,1.714,1.714V24A1.714,1.714,0,0,1,24,25.714Zm-3.429-5.143V24H24V20.571Z"/>
      <path id="Path_15381" data-name="Path 15381" d="M6.857,17.143H3.429a1.714,1.714,0,0,1-1.714-1.714V12a1.714,1.714,0,0,1,1.714-1.714H6.857A1.714,1.714,0,0,1,8.571,12v3.429A1.714,1.714,0,0,1,6.857,17.143ZM3.429,12v3.429H6.857V12Z"/>
      <path id="Path_15382" data-name="Path 15382" d="M15.429,17.143H12a1.714,1.714,0,0,1-1.714-1.714V12A1.714,1.714,0,0,1,12,10.286h3.429A1.714,1.714,0,0,1,17.143,12v3.429A1.714,1.714,0,0,1,15.429,17.143ZM12,12v3.429h3.429V12Z"/>
      <path id="Path_15383" data-name="Path 15383" d="M24,17.143H20.571a1.714,1.714,0,0,1-1.714-1.714V12a1.714,1.714,0,0,1,1.714-1.714H24A1.714,1.714,0,0,1,25.714,12v3.429A1.714,1.714,0,0,1,24,17.143ZM20.571,12v3.429H24V12Z"/>
      <path id="Path_15384" data-name="Path 15384" d="M6.857,8.571H3.429A1.714,1.714,0,0,1,1.714,6.857V3.429A1.714,1.714,0,0,1,3.429,1.714H6.857A1.714,1.714,0,0,1,8.571,3.429V6.857A1.714,1.714,0,0,1,6.857,8.571ZM3.429,3.429V6.857H6.857V3.429Z"/>
      <path id="Path_15385" data-name="Path 15385" d="M15.429,8.571H12a1.714,1.714,0,0,1-1.714-1.714V3.429A1.714,1.714,0,0,1,12,1.714h3.429a1.714,1.714,0,0,1,1.714,1.714V6.857A1.714,1.714,0,0,1,15.429,8.571ZM12,3.429V6.857h3.429V3.429Z"/>
      <path id="Path_15386" data-name="Path 15386" d="M24,8.571H20.571a1.714,1.714,0,0,1-1.714-1.714V3.429a1.714,1.714,0,0,1,1.714-1.714H24a1.714,1.714,0,0,1,1.714,1.714V6.857A1.714,1.714,0,0,1,24,8.571ZM20.571,3.429V6.857H24V3.429Z"/>
    </g>
  </g>
</svg>
