<svg xmlns="http://www.w3.org/2000/svg" xmlns:xlink="http://www.w3.org/1999/xlink" width="24" height="24" viewBox="0 0 24 24">
  <defs>
    <clipPath id="clip-path">
      <rect id="Rectangle_17632" data-name="Rectangle 17632" width="24" height="24" transform="translate(163 228)" fill="#707070"/>
    </clipPath>
  </defs>
  <g id="Mask_Group_45" data-name="Mask Group 45" transform="translate(-163 -228)" clip-path="url(#clip-path)">
    <g id="__TEMP__SVG__" transform="translate(159 224)">
      <path id="Path_15409" data-name="Path 15409" d="M4,24H14v2H4Z"/>
      <path id="Path_15410" data-name="Path 15410" d="M4,18H14v2H4Z"/>
      <path id="Path_15411" data-name="Path 15411" d="M26,14H6a2,2,0,0,1-2-2V6A2,2,0,0,1,6,4H26a2,2,0,0,1,2,2v6A2,2,0,0,1,26,14ZM6,6v6H26V6Z"/>
      <path id="Path_15412" data-name="Path 15412" d="M26,28H20a2,2,0,0,1-2-2V20a2,2,0,0,1,2-2h6a2,2,0,0,1,2,2v6A2,2,0,0,1,26,28Zm-6-8v6h6V20Z"/>
    </g>
  </g>
</svg>
