<svg xmlns="http://www.w3.org/2000/svg" xmlns:xlink="http://www.w3.org/1999/xlink" width="24" height="24" viewBox="0 0 24 24">
  <defs>
    <clipPath id="clip-path">
      <rect id="Rectangle_17634" data-name="Rectangle 17634" width="24" height="24" transform="translate(902 602)" fill="#707070"/>
    </clipPath>
  </defs>
  <g id="Mask_Group_11" data-name="Mask Group 11" transform="translate(-902 -602)" clip-path="url(#clip-path)">
    <g id="__TEMP__SVG__" transform="translate(902 602)">
      <path id="Path_15318" data-name="Path 15318" d="M21,3H3A1.5,1.5,0,0,0,1.5,4.5V21A1.5,1.5,0,0,0,3,22.5H21A1.5,1.5,0,0,0,22.5,21V4.5A1.5,1.5,0,0,0,21,3ZM3,1.5a3,3,0,0,0-3,3V21a3,3,0,0,0,3,3H21a3,3,0,0,0,3-3V4.5a3,3,0,0,0-3-3Z" fill-rule="evenodd"/>
      <path id="Path_15319" data-name="Path 15319" d="M21,3H3A1.5,1.5,0,0,0,1.5,4.5V6h21V4.5A1.5,1.5,0,0,0,21,3ZM3,1.5a3,3,0,0,0-3,3v3H24v-3a3,3,0,0,0-3-3Z" fill-rule="evenodd"/>
      <path id="Path_15320" data-name="Path 15320" d="M5.25,0A.75.75,0,0,1,6,.75V1.5a.75.75,0,0,1-1.5,0V.75A.75.75,0,0,1,5.25,0Zm13.5,0a.75.75,0,0,1,.75.75V1.5a.75.75,0,0,1-1.5,0V.75A.75.75,0,0,1,18.75,0Z" fill-rule="evenodd"/>
      <path id="Path_15321" data-name="Path 15321" d="M16.5,11.25a.75.75,0,0,1,.75-.75h1.5a.75.75,0,0,1,.75.75v1.5a.75.75,0,0,1-.75.75h-1.5a.75.75,0,0,1-.75-.75Zm-4.5,0a.75.75,0,0,1,.75-.75h1.5a.75.75,0,0,1,.75.75v1.5a.75.75,0,0,1-.75.75h-1.5a.75.75,0,0,1-.75-.75Zm-3,4.5A.75.75,0,0,1,9.75,15h1.5a.75.75,0,0,1,.75.75v1.5a.75.75,0,0,1-.75.75H9.75A.75.75,0,0,1,9,17.25Zm-4.5,0A.75.75,0,0,1,5.25,15h1.5a.75.75,0,0,1,.75.75v1.5a.75.75,0,0,1-.75.75H5.25a.75.75,0,0,1-.75-.75Z"/>
    </g>
  </g>
</svg>
