<svg xmlns="http://www.w3.org/2000/svg" xmlns:xlink="http://www.w3.org/1999/xlink" width="24" height="24" viewBox="0 0 24 24">
  <defs>
    <clipPath id="clip-path">
      <rect id="Rectangle_17982" data-name="Rectangle 17982" width="24" height="24" transform="translate(-10737 -20631)" fill="#707070"/>
    </clipPath>
  </defs>
  <g id="Mask_Group_99" data-name="Mask Group 99" transform="translate(10737 20631)" clip-path="url(#clip-path)">
    <g id="__TEMP__SVG__" transform="translate(-10737 -20630.168)">
      <path id="Path_15647" data-name="Path 15647" d="M4.821,1.608c2.4-.48,5.553-.543,7.71,1.611a.75.75,0,0,1,.219.531v16.5a.75.75,0,0,1-1.281.531A6.249,6.249,0,0,0,6.264,19.4,16.1,16.1,0,0,0,1.086,20.92.75.75,0,0,1,0,20.25V3.75a.75.75,0,0,1,.414-.671L.75,3.75.414,3.079h0l.006,0,.019-.009q.163-.081.33-.155a19.437,19.437,0,0,1,4.05-1.3ZM1.5,4.23V19.092A17.365,17.365,0,0,1,6.111,17.91a8.705,8.705,0,0,1,5.139.84V4.077c-1.595-1.393-3.947-1.434-6.135-1A17.936,17.936,0,0,0,1.5,4.23Z" fill-rule="evenodd"/>
      <path id="Path_15648" data-name="Path 15648" d="M19.179,1.608c-2.4-.48-5.553-.543-7.71,1.611a.75.75,0,0,0-.219.531v16.5a.75.75,0,0,0,1.281.531,6.249,6.249,0,0,1,5.205-1.38,16.1,16.1,0,0,1,5.178,1.519A.75.75,0,0,0,24,20.25V3.75a.75.75,0,0,0-.414-.671l-.336.671.336-.671h0l-.006,0-.019-.009-.071-.035q-.59-.276-1.2-.51a19.44,19.44,0,0,0-3.109-.913ZM22.5,4.23V19.092a17.365,17.365,0,0,0-4.611-1.182,8.705,8.705,0,0,0-5.139.84V4.077c1.595-1.393,3.947-1.434,6.135-1A17.934,17.934,0,0,1,22.5,4.23Z" fill-rule="evenodd"/>
    </g>
  </g>
</svg>
