<svg xmlns="http://www.w3.org/2000/svg" xmlns:xlink="http://www.w3.org/1999/xlink" width="24" height="24" viewBox="0 0 24 24">
  <defs>
    <clipPath id="clip-path">
      <rect id="Rectangle_17977" data-name="Rectangle 17977" width="24" height="24" transform="translate(54 1082)" fill="#707070"/>
    </clipPath>
  </defs>
  <g id="Mask_Group_130" data-name="Mask Group 130" transform="translate(-54 -1082)" clip-path="url(#clip-path)">
    <path id="__TEMP__SVG__" d="M5.083,20H23.2V.8H5.033A3.043,3.043,0,0,0,2,3.834V21.513H2c0,.008,0,.015,0,.023A3.2,3.2,0,0,0,5.034,24.8H23.2V23.2H5.033A1.624,1.624,0,0,1,3.6,21.535,1.53,1.53,0,0,1,5.084,20ZM18,2.416v8.641L15.58,8.932,13.2,11.045V2.416ZM11.6,2.4V13.2h1.582l2.4-2.133L18.015,13.2H19.6V2.4h2v16H6.8l0-16Zm-6.566,0H5.2l0,16H5.083a2.989,2.989,0,0,0-1.482.394V3.846A1.441,1.441,0,0,1,5.033,2.4Z" transform="translate(53.399 1081.199)"/>
  </g>
</svg>
