<svg xmlns="http://www.w3.org/2000/svg" xmlns:xlink="http://www.w3.org/1999/xlink" width="24" height="24" viewBox="0 0 24 24">
  <defs>
    <clipPath id="clip-path">
      <rect id="Rectangle_17632" data-name="Rectangle 17632" width="24" height="24" transform="translate(163 228)" fill="#707070"/>
    </clipPath>
  </defs>
  <g id="Mask_Group_44" data-name="Mask Group 44" transform="translate(-163 -228)" clip-path="url(#clip-path)">
    <g id="__TEMP__SVG__" transform="translate(159 224)">
      <path id="Path_15407" data-name="Path 15407" d="M19,14a3,3,0,1,0-3-3,3,3,0,0,0,3,3Zm0-4a1,1,0,1,1-1,1A1,1,0,0,1,19,10Z"/>
      <path id="Path_15408" data-name="Path 15408" d="M26,4H6A2,2,0,0,0,4,6V26a2,2,0,0,0,2,2H26a2,2,0,0,0,2-2V6A2,2,0,0,0,26,4Zm0,22H6V20l5-5,5.59,5.59a2,2,0,0,0,2.82,0L21,19l5,5Zm0-4.83-3.59-3.59a2,2,0,0,0-2.82,0L18,19.17l-5.59-5.59a2,2,0,0,0-2.82,0L6,17.17V6H26Z"/>
    </g>
  </g>
</svg>
