<svg xmlns="http://www.w3.org/2000/svg" xmlns:xlink="http://www.w3.org/1999/xlink" width="24" height="24" viewBox="0 0 24 24">
  <defs>
    <clipPath id="clip-path">
      <rect id="Rectangle_18014" data-name="Rectangle 18014" width="24" height="24" transform="translate(53 1253)" fill="#707070"/>
    </clipPath>
  </defs>
  <g id="Mask_Group_116" data-name="Mask Group 116" transform="translate(-53 -1253)" clip-path="url(#clip-path)">
    <g id="__TEMP__SVG__" transform="translate(50.6 1250.502)">
      <path id="Path_15708" data-name="Path 15708" d="M14.32,13.84A3.88,3.88,0,1,0,10.4,9.92,3.926,3.926,0,0,0,14.32,13.84Zm-.08-6.16h0A2.322,2.322,0,0,1,16.56,10,2.28,2.28,0,0,1,12,10a2.306,2.306,0,0,1,2.24-2.32Z"/>
      <path id="Path_15709" data-name="Path 15709" d="M26.16,13.36a7.921,7.921,0,0,0-5.6-2h-.64a5.334,5.334,0,0,1-.72,1.68,7.762,7.762,0,0,1,1.36-.08,6.654,6.654,0,0,1,4.24,1.28V20h1.6V13.6l-.24-.24Z"/>
      <path id="Path_15710" data-name="Path 15710" d="M18.72,6.24a1.954,1.954,0,1,1,3.6,1.52,2,2,0,0,1-1.76,1.2A1.361,1.361,0,0,1,20,8.88,5.667,5.667,0,0,1,20.08,10v.48c.16,0,.32.08.48.08a3.56,3.56,0,0,0,.08-7.12A3.43,3.43,0,0,0,17.6,5.2a3.415,3.415,0,0,1,1.12,1.04Z"/>
      <path id="Path_15711" data-name="Path 15711" d="M9.6,13.12a5.334,5.334,0,0,1-.72-1.68H8.24a8.232,8.232,0,0,0-5.6,1.92l-.24.24V20H4V14.24a6.8,6.8,0,0,1,4.24-1.28A7.045,7.045,0,0,1,9.6,13.12Z"/>
      <path id="Path_15712" data-name="Path 15712" d="M8.24,10.48a1.015,1.015,0,0,0,.48-.08V9.92A4.92,4.92,0,0,1,8.8,8.8a1.361,1.361,0,0,1-.56.08,1.92,1.92,0,1,1,0-3.84,2.021,2.021,0,0,1,1.84,1.2,7.964,7.964,0,0,1,1.2-1.12,3.554,3.554,0,1,0-3.04,5.36Z"/>
      <path id="Path_15713" data-name="Path 15713" d="M20.88,18.16l-.16-.24a8.074,8.074,0,0,0-6.24-2.72,8.241,8.241,0,0,0-6.32,2.72L8,18.16v6.08A1.348,1.348,0,0,0,9.36,25.6H19.6a1.4,1.4,0,0,0,1.36-1.36V18.16ZM19.28,24H9.6V18.72a6.827,6.827,0,0,1,4.88-1.92,6.452,6.452,0,0,1,4.8,1.92Z"/>
    </g>
  </g>
</svg>
