<svg xmlns="http://www.w3.org/2000/svg" xmlns:xlink="http://www.w3.org/1999/xlink" width="24" height="24" viewBox="0 0 24 24">
  <defs>
    <clipPath id="clip-path">
      <rect id="Rectangle_17632" data-name="Rectangle 17632" width="24" height="24" transform="translate(163 228)" fill="#707070"/>
    </clipPath>
  </defs>
  <g id="Mask_Group_46" data-name="Mask Group 46" transform="translate(-163 -228)" clip-path="url(#clip-path)">
    <path id="__TEMP__SVG__" d="M13.714,1.714a12,12,0,1,0,12,12A12,12,0,0,0,13.714,1.714ZM24,12.857H18.857a20.8,20.8,0,0,0-2.392-9.043A10.286,10.286,0,0,1,24,12.857ZM13.714,24a4.286,4.286,0,0,1-.574,0,18.728,18.728,0,0,1-2.854-9.429h6.857A18.728,18.728,0,0,1,14.315,24a4.286,4.286,0,0,1-.6,0ZM10.286,12.857a18.728,18.728,0,0,1,2.828-9.429,5.143,5.143,0,0,1,1.149,0,18.728,18.728,0,0,1,2.88,9.429Zm.651-9.043a20.8,20.8,0,0,0-2.366,9.043H3.429a10.286,10.286,0,0,1,7.534-9.043ZM3.471,14.571H8.614a20.8,20.8,0,0,0,2.357,9.043,10.286,10.286,0,0,1-7.5-9.043Zm12.994,9.043a20.8,20.8,0,0,0,2.392-9.043H24a10.286,10.286,0,0,1-7.534,9.043Z" transform="translate(161.286 226.286)"/>
  </g>
</svg>
